<?xml version="1.0" standalone="no"?>
<!DOCTYPE svg PUBLIC "-//W3C//DTD SVG 20010904//EN"
 "http://www.w3.org/TR/2001/REC-SVG-20010904/DTD/svg10.dtd">
<svg version="1.0" xmlns="http://www.w3.org/2000/svg"
 width="512.000000pt" height="512.000000pt" viewBox="0 0 512.000000 512.000000"
 preserveAspectRatio="xMidYMid meet">

<g transform="translate(0.000000,512.000000) scale(0.100000,-0.100000)"
fill="#ffffff" stroke="none">
<path d="M3710 5099 c-1168 -39 -2121 -281 -2740 -693 -199 -132 -412 -324
-535 -481 -332 -424 -474 -939 -425 -1530 32 -380 137 -800 304 -1216 26 -62
46 -119 46 -126 0 -7 -18 -52 -41 -100 -71 -152 -176 -419 -235 -597 -54 -163
-56 -173 -44 -215 24 -90 115 -144 202 -120 69 18 100 59 143 189 57 171 109
308 176 467 l61 141 97 -45 c407 -190 812 -309 1226 -359 157 -19 499 -22 640
-5 863 102 1479 584 1773 1386 81 223 126 429 172 795 141 1123 330 1889 540
2188 22 33 43 75 47 94 10 65 -30 143 -88 174 -42 21 -299 42 -671 54 -337 10
-328 10 -648 -1z m689 -333 c-2 -3 -119 -63 -259 -134 -411 -207 -867 -478
-1209 -718 -90 -63 -166 -112 -169 -109 -9 8 19 186 44 274 13 47 24 103 24
124 0 76 -48 137 -125 158 -68 19 -161 -27 -189 -95 -51 -124 -96 -396 -96
-591 l-1 -140 -116 -95 c-267 -218 -633 -565 -886 -840 l-96 -105 -1 90 c-1
233 44 498 131 776 28 86 29 100 19 139 -24 89 -114 143 -200 120 -68 -18
-102 -60 -138 -170 -137 -423 -176 -853 -110 -1246 l11 -71 -45 -59 c-67 -87
-264 -382 -343 -511 -37 -62 -70 -113 -74 -113 -4 0 -24 53 -45 117 -215 652
-248 1199 -100 1652 221 677 889 1155 1934 1385 397 87 733 130 1255 160 85 4
789 6 784 2z m122 -438 c-118 -394 -216 -898 -301 -1548 -81 -619 -123 -788
-275 -1095 -267 -538 -719 -852 -1355 -939 -144 -20 -443 -21 -605 -2 -292 35
-581 108 -875 223 -150 59 -330 144 -330 156 0 49 469 777 501 777 6 0 70 -18
142 -40 319 -95 587 -138 918 -147 229 -6 448 8 503 31 75 32 117 121 95 196
-15 50 -75 107 -123 115 -20 4 -86 2 -149 -4 -299 -29 -668 4 -1008 89 -183
47 -177 27 -51 171 228 262 545 569 837 813 72 60 138 116 147 124 16 13 30
10 140 -26 205 -68 425 -102 640 -101 225 1 274 14 326 90 20 28 23 44 20 90
-5 70 -35 114 -96 141 -40 18 -58 20 -161 14 -64 -4 -166 -2 -228 3 -117 11
-293 41 -293 50 2 28 641 440 955 616 163 91 658 345 663 340 2 -2 -14 -63
-37 -137z"/>
</g>
</svg>
